<?xml version="1.0" encoding="utf-8"?>
<!-- Generator: Adobe Illustrator 24.3.0, SVG Export Plug-In . SVG Version: 6.00 Build 0)  -->
<svg version="1.1" xmlns="http://www.w3.org/2000/svg" xmlns:xlink="http://www.w3.org/1999/xlink" x="0px" y="0px"
	 viewBox="0 0 1922.566 458" style="enable-background:new 0 0 1922.566 458;" xml:space="preserve">
<style type="text/css">
	.st0{fill:url(#SVGID_1_);}
	.st1{fill:#FF6CAB;}
	.st2{fill:#84DBFF;}
	.st3{fill:#FFFFFF;}
	.st4{fill:#FFD05B;}
	.st5{fill:#F9B54C;}
</style>
<g id="图层_1">
	<linearGradient id="SVGID_1_" gradientUnits="userSpaceOnUse" x1="672" y1="227.7518" x2="1922.5656" y2="227.7518">
		<stop  offset="4.049120e-07" style="stop-color:#FF6CAB"/>
		<stop  offset="0.2211" style="stop-color:#DD6BBF"/>
		<stop  offset="0.7541" style="stop-color:#9167ED"/>
		<stop  offset="1" style="stop-color:#7366FF"/>
	</linearGradient>
	<path class="st0" d="M672,129.137h64.928l34.582,93.864c4.234,12.703,7.763,26.819,11.997,40.228h1.412
		c4.234-13.409,7.763-27.525,11.998-40.228l33.17-93.864h64.928v229.366h-55.048v-67.751c0-23.29,4.941-58.93,7.764-81.866h-1.412
		l-19.055,55.048l-28.23,75.868h-32.465l-28.23-75.868l-18.349-55.048h-1.411c2.822,22.936,7.763,58.577,7.763,81.866v67.751H672
		V129.137z M937.355,129.843C937.355,112.2,951.239,97,971,97s34.107,15.2,34.107,32.843S990.761,164,971,164
		S937.355,147.487,937.355,129.843z M940.884,182.069h60.694v176.435h-60.694V182.069z M1042.51,182.069L1103,182v21l0,0
		c10-15,26.316-25.166,50.312-25.166c38.815,0,55.048,28.23,55.048,71.986v108.683h-60.694c0,0-0.666-94.504-0.666-115.504
		c0-30-44-28-44,0l0.203,115.504h-60.694V182.069z M1244.348,129.843C1244.348,112.2,1258.238,97,1278,97s34.099,15.2,34.099,32.843
		S1297.762,164,1278,164S1244.348,147.487,1244.348,129.843z M1247.877,182.069h60.694v176.435h-60.694V182.069z M1354.442,129.137
		h60.695v178.553h86.806v50.813h-147.501V129.137z M1541.463,129.137h83.984c50.108,0,93.159,18.35,93.159,76.22
		c0,56.107-43.757,80.455-91.747,80.455h-24.701v72.691h-60.695V129.137z M1624.035,237.822c23.996,0,35.288-11.998,35.288-32.465
		s-13.409-28.23-36.698-28.23h-20.467v60.694H1624.035z M1779.3,129.137h73.397l69.868,229.366h-64.223l-26.113-111.507
		c-5.646-21.878-11.292-49.754-16.938-72.691h-1.41c-4.941,23.29-10.587,50.814-16.233,72.691l-26.113,111.507h-62.105
		L1779.3,129.137z M1759.54,262.876h112.212v46.932H1759.54V262.876z"/>
</g>
<g id="图层_2">
	<g>
		<g>
			<path class="st1" d="M555,98c0,31.236,0,62.473,0,93.709c0,49.383,0,98.766,0,148.149c0,11.381,0,22.762,0,34.143
				c0,12.869,20,12.89,20,0c0-31.236,0-62.473,0-93.709c0-49.383,0-98.766,0-148.148c0-11.381,0-22.762,0-34.143
				C575,85.131,555,85.11,555,98L555,98z"/>
		</g>
	</g>
</g>
<g id="图层_3">
	<circle class="st2" cx="229" cy="229" r="229"/>
	<path class="st3" d="M310.987,359.689H147.013c-8.616,0-15.599-6.983-15.599-15.599V113.91c0-8.616,6.983-15.599,15.599-15.599
		h105.204c4.172,0,8.072,1.632,11.065,4.535l58.769,58.769c2.902,2.902,4.535,6.893,4.535,11.065V344.18
		C326.586,352.705,319.602,359.689,310.987,359.689z"/>
	<path class="st4" d="M280.967,186.918H177.033c-2.267,0-4.172,1.814-4.172,4.172v75.819c0,2.267,1.814,4.172,4.172,4.172h104.025
		c2.267,0,4.172-1.814,4.172-4.172V191.09C285.139,188.823,283.325,186.918,280.967,186.918z"/>
	<g>
		<polygon class="st5" points="254.938,211.36 254.938,186.964 249.043,186.964 249.043,211.36 208.957,211.36 208.957,186.964 
			203.062,186.964 203.062,211.36 172.861,211.36 172.861,217.346 285.139,217.346 285.139,211.36 		"/>
		<polygon class="st5" points="172.861,246.64 203.062,246.64 203.062,271.036 208.957,271.036 208.957,246.64 249.043,246.64 
			249.043,271.036 254.938,271.036 254.938,246.64 285.139,246.64 285.139,240.654 172.861,240.654 		"/>
	</g>
</g>
</svg>
