<?xml version="1.0" encoding="utf-8"?>
<!-- Generator: Adobe Illustrator 24.3.0, SVG Export Plug-In . SVG Version: 6.00 Build 0)  -->
<svg version="1.1" xmlns="http://www.w3.org/2000/svg" xmlns:xlink="http://www.w3.org/1999/xlink" x="0px"
	 y="0px" viewBox="0 0 800 800" style="enable-background:new 0 0 800 800;" xml:space="preserve">
<style type="text/css">
	.st0{fill:none;stroke:#6E6E6E;stroke-width:66.6667;stroke-linejoin:round;stroke-miterlimit:133.3333;}
</style>
<g id="SVGRepo_iconCarrier">
	<path class="st0" d="M294.3,139.6c19.3-19.3,28.9-28.9,41.2-34c12.2-5.1,25.9-5.1,53.1-5.1H500c62.9,0,94.3,0,113.8,19.5
		s19.5,51,19.5,113.8v333.3c0,62.9,0,94.3-19.5,113.8s-51,19.5-113.8,19.5H300c-62.9,0-94.3,0-113.8-19.5s-19.5-51-19.5-113.8V322.4
		c0-27.2,0-40.9,5.1-53.1c5.1-12.3,14.7-21.9,34-41.2L294.3,139.6z"/>
</g>
</svg>
