<!DOCTYPE svg PUBLIC "-//W3C//DTD SVG 1.1//EN" "http://www.w3.org/Graphics/SVG/1.1/DTD/svg11.dtd">

<!-- Uploaded to: SVG Repo, www.svgrepo.com, Transformed by: SVG Repo Mixer Tools -->
<svg width="800px" height="800px" viewBox="0 0 24 24" fill="none" xmlns="http://www.w3.org/2000/svg">

<g id="SVGRepo_bgCarrier" stroke-width="0"/>

<g id="SVGRepo_tracerCarrier" stroke-linecap="round" stroke-linejoin="round"/>

<g id="SVGRepo_iconCarrier"> <path d="M3.08168 13.9445C2.55298 12.9941 2.28862 12.5188 2.28862 12C2.28862 11.4812 2.55298 11.0059 3.08169 10.0555L4.43094 7.63L5.85685 5.24876C6.4156 4.31567 6.69498 3.84912 7.14431 3.5897C7.59364 3.33028 8.13737 3.3216 9.22483 3.30426L12 3.26L14.7752 3.30426C15.8626 3.3216 16.4064 3.33028 16.8557 3.5897C17.305 3.84912 17.5844 4.31567 18.1431 5.24876L19.5691 7.63L20.9183 10.0555C21.447 11.0059 21.7114 11.4812 21.7114 12C21.7114 12.5188 21.447 12.9941 20.9183 13.9445L19.5691 16.37L18.1431 18.7512C17.5844 19.6843 17.305 20.1509 16.8557 20.4103C16.4064 20.6697 15.8626 20.6784 14.7752 20.6957L12 20.74L9.22483 20.6957C8.13737 20.6784 7.59364 20.6697 7.14431 20.4103C6.69498 20.1509 6.4156 19.6843 5.85685 18.7512L4.43094 16.37L3.08168 13.9445Z" stroke="#6E6E6E" stroke-width="2"/> <circle cx="12" cy="12" r="3" stroke="#6E6E6E" stroke-width="2"/> </g>

</svg>