<?xml version="1.0" encoding="iso-8859-1"?>
<!-- Uploaded to: SVG Repo, www.svgrepo.com, Generator: SVG Repo Mixer Tools -->
<svg height="800px" width="800px" version="1.1" id="Layer_1" xmlns="http://www.w3.org/2000/svg" xmlns:xlink="http://www.w3.org/1999/xlink" 
	 viewBox="0 0 505 505" xml:space="preserve">
<circle style="fill:#84DBFF;" cx="252.5" cy="252.5" r="252.5"/>
<path style="fill:#FFFFFF;" d="M342.9,396.6H162.1c-9.5,0-17.2-7.7-17.2-17.2V125.6c0-9.5,7.7-17.2,17.2-17.2h116
	c4.6,0,8.9,1.8,12.2,5l64.8,64.8c3.2,3.2,5,7.6,5,12.2v189.1C360.1,388.9,352.4,396.6,342.9,396.6z"/>
<path style="fill:#FFD05B;" d="M309.8,266.2H195.2c-2.5,0-4.6,2-4.6,4.6v83.6c0,2.5,2,4.6,4.6,4.6h114.7c2.5,0,4.6-2,4.6-4.6v-83.6
	C314.4,268.3,312.4,266.2,309.8,266.2z"/>
<g>
	<polygon style="fill:#F9B54C;" points="281.1,293.1 281.1,266.2 274.6,266.2 274.6,293.1 230.4,293.1 230.4,266.2 223.9,266.2 
		223.9,293.1 190.6,293.1 190.6,299.7 314.4,299.7 314.4,293.1 	"/>
	<polygon style="fill:#F9B54C;" points="190.6,332 223.9,332 223.9,358.9 230.4,358.9 230.4,332 274.6,332 274.6,358.9 281.1,358.9 
		281.1,332 314.4,332 314.4,325.4 190.6,325.4 	"/>
</g>
</svg>